<?xml version="1.0" encoding="UTF-8" standalone="no"?>
<!-- Created with Inkscape (http://www.inkscape.org/) -->

<svg
   width="814.20966"
   height="1200.1073"
   viewBox="0 0 814.20966 1200.1073"
   version="1.1"
   id="svg5"
   inkscape:version="1.1.2 (b8e25be833, 2022-02-05)"
   sodipodi:docname="memoza-primary.svg"
   xmlns:inkscape="http://www.inkscape.org/namespaces/inkscape"
   xmlns:sodipodi="http://sodipodi.sourceforge.net/DTD/sodipodi-0.dtd"
   xmlns="http://www.w3.org/2000/svg"
   xmlns:svg="http://www.w3.org/2000/svg">
  <sodipodi:namedview
     id="namedview7"
     pagecolor="#ffffff"
     bordercolor="#666666"
     borderopacity="1.0"
     inkscape:pageshadow="2"
     inkscape:pageopacity="0.0"
     inkscape:pagecheckerboard="0"
     inkscape:document-units="px"
     showgrid="false"
     inkscape:zoom="0.66574074"
     inkscape:cx="557.27399"
     inkscape:cy="737.52434"
     inkscape:window-width="2400"
     inkscape:window-height="1494"
     inkscape:window-x="-11"
     inkscape:window-y="-11"
     inkscape:window-maximized="1"
     inkscape:current-layer="layer1"
     fit-margin-top="0"
     fit-margin-left="0"
     fit-margin-right="0"
     fit-margin-bottom="0" />
  <defs
     id="defs2" />
  <g
     inkscape:label="Calque 1"
     inkscape:groupmode="layer"
     id="layer1"
     transform="translate(247.88369,204.32319)">
    <path
       sodipodi:type="star"
       style="fill:#eda100;fill-opacity:1;fill-rule:evenodd"
       id="path31"
       inkscape:flatsided="false"
       sodipodi:sides="16"
       sodipodi:cx="159.22115"
       sodipodi:cy="202.78165"
       sodipodi:r1="245.67336"
       sodipodi:r2="409.4556"
       sodipodi:arg1="0.69708679"
       sodipodi:arg2="0.89343633"
       inkscape:rounded="0.15"
       inkscape:randomized="0"
       d="m 347.58276,360.5007 c -16.87012,20.14774 88.73638,144.87163 68.25978,161.34104 -20.47659,16.46941 -119.65826,-113.42199 -142.95442,-101.26382 -23.29617,12.15817 26.54175,167.80188 1.32127,175.18157 -25.22048,7.3797 -67.1451,-150.57949 -93.32068,-148.26186 -26.17558,2.31763 -39.69362,165.18581 -65.81839,162.3523 C 88.94555,607.01643 110.66061,445.03731 85.590609,437.16156 60.520607,429.2858 -14.295382,574.58325 -37.347187,561.96792 -60.398993,549.35258 21.649834,408.01338 1.5020919,391.14326 -18.64565,374.27314 -143.36954,479.87964 -159.83895,459.40305 -176.30836,438.92645 -46.416957,339.74478 -58.575129,316.44862 -70.7333,293.15245 -226.377,342.99037 -233.7567,317.76989 c -7.3797,-25.22047 150.579488,-67.1451 148.261859,-93.32068 -2.31763,-26.17558 -165.185809,-39.69362 -162.352299,-65.81839 2.8335,-26.12477 164.812627,-4.40971 172.688377,-29.47971 C -67.283012,104.08111 -212.58046,29.265119 -199.96512,6.2133138 -187.34979,-16.838492 -46.010587,65.210335 -29.140468,45.062593 -12.270349,24.914851 -117.87685,-99.809036 -97.400253,-116.27845 -76.923659,-132.74786 22.25801,-2.8564562 45.554175,-15.014628 68.850339,-27.172799 19.012423,-182.8165 44.2329,-190.1962 c 25.220477,-7.3797 67.1451,150.57949 93.32068,148.26186 26.17558,-2.31763 39.69362,-165.18581 65.81839,-162.3523 26.12477,2.8335 4.40971,164.812628 29.47971,172.688378 25.07,7.875751 99.88599,-137.421698 122.9378,-124.806358 23.0518,12.61533 -58.99702,153.9545343 -38.84928,170.824653 20.14774,16.870119 144.87163,-88.736379 161.34104,-68.259785 16.46941,20.476594 -113.42199,119.658263 -101.26382,142.954428 12.15817,23.296164 167.80187,-26.541752 175.18157,-1.321275 7.3797,25.220479 -150.57949,67.145099 -148.26186,93.320679 2.31763,26.17559 165.18581,39.69362 162.3523,65.81839 -2.8335,26.12477 -164.81263,4.40971 -172.68838,29.47971 -7.87575,25.07 137.4217,99.88599 124.80637,122.9378 -12.61534,23.05181 -153.95454,-58.99702 -170.82466,-38.84928 z" />
    <path
       sodipodi:type="star"
       style="fill:#eda100;fill-opacity:1"
       id="path5457"
       inkscape:flatsided="false"
       sodipodi:sides="2"
       sodipodi:cx="1212.1836"
       sodipodi:cy="866.70374"
       sodipodi:r1="293.77213"
       sodipodi:r2="20.507746"
       sodipodi:arg1="-1.9313623"
       sodipodi:arg2="1.6588036"
       inkscape:rounded="0.15"
       inkscape:randomized="0"
       d="m 1108.5397,591.82195 c -4.2418,46.66425 85.3021,251.46959 101.8414,295.31016 14.5834,38.65614 101.7063,295.59929 105.4464,254.45339 4.2418,-46.6642 -85.3021,-251.46957 -101.8414,-295.31014 -14.5834,-38.65614 -101.7063,-295.5993 -105.4464,-254.45341 z"
       transform="translate(-827.68898,-150.24809)" />
  </g>
</svg>
