<?xml version="1.0" encoding="UTF-8" standalone="no"?>
<svg
   height="46.221516"
   width="51.999992"
   viewBox="0 0 51.999992 46.221516"
   id="svg2"
   version="1.1"
   inkscape:version="1.1.2 (b8e25be833, 2022-02-05)"
   sodipodi:docname="guidelines.svg"
   xmlns:inkscape="http://www.inkscape.org/namespaces/inkscape"
   xmlns:sodipodi="http://sodipodi.sourceforge.net/DTD/sodipodi-0.dtd"
   xmlns="http://www.w3.org/2000/svg"
   xmlns:svg="http://www.w3.org/2000/svg"
   xmlns:rdf="http://www.w3.org/1999/02/22-rdf-syntax-ns#"
   xmlns:cc="http://creativecommons.org/ns#"
   xmlns:dc="http://purl.org/dc/elements/1.1/">
  <metadata
     id="metadata13">
    <rdf:RDF>
      <cc:Work
         rdf:about="">
        <dc:format>image/svg+xml</dc:format>
        <dc:type
           rdf:resource="http://purl.org/dc/dcmitype/StillImage" />
      </cc:Work>
    </rdf:RDF>
  </metadata>
  <defs
     id="defs11" />
  <sodipodi:namedview
     pagecolor="#ffffff"
     bordercolor="#666666"
     borderopacity="1"
     objecttolerance="10"
     gridtolerance="10"
     guidetolerance="10"
     inkscape:pageopacity="0.29019608"
     inkscape:pageshadow="2"
     inkscape:window-width="2400"
     inkscape:window-height="1494"
     id="namedview9"
     showgrid="false"
     inkscape:zoom="4.9166667"
     inkscape:cx="2.0338983"
     inkscape:cy="-0.81355932"
     inkscape:window-x="-11"
     inkscape:window-y="-11"
     inkscape:window-maximized="1"
     inkscape:current-layer="g4"
     inkscape:pagecheckerboard="0"
     fit-margin-top="0"
     fit-margin-left="0"
     fit-margin-right="0"
     fit-margin-bottom="0" />
  <g
     id="g4"
     transform="matrix(2,0,0,2,-22,-24.889242)">
    <path
       id="path1"
       transform="matrix(0.81250024,0,0,0.81250024,11,12.444621)"
       d="m 14.495536,2.4970052 c 0.500006,-2e-7 0.899012,0.200001 1.299025,0.5990045 l 0.09999,0.099998 h 0.100007 l 0.198992,0.2000015 7.891096,7.9900198 4.994061,-4.7940116 c 0.300006,-0.3000002 0.799005,-0.499002 1.199005,-0.3989992 0.399006,0 0.898019,0.1989979 1.198026,0.5990004 0.698998,0.6990032 0.698998,1.7980051 0,2.3970061 l -6.29208,6.0930203 c -0.600013,0.599 -1.598011,0.599 -2.29803,0 l -0.198992,-0.1 c -0.200011,-0.100005 -0.40001,-0.300003 -0.500003,-0.400001 l -2.896044,-2.996011 -2.397016,2.39701 6.791078,6.892018 c 0.799006,0.798998 0.898997,2.097006 0.09999,2.797005 -0.299,0.299005 -0.698999,0.499002 -1.198013,0.499002 h -0.199999 -0.100006 -9.3891 c -0.99902,0 -1.798025,-0.798998 -1.798025,-1.798002 0,-0.999002 0.799005,-1.798008 1.798025,-1.798008 h 5.294051 L 14.196536,16.680043 3.1094041,27.86708 c -0.6989982,0.698999 -1.8980171,0.798998 -2.59703032,0.1 -0.69899776,-0.7 -0.69899776,-1.89801 0.10000748,-2.597009 L 16.693559,9.2890246 16.793567,9.1890252 14.395544,6.7920191 9.5014753,11.486029 c -0.6989984,0.600008 -1.7980094,0.600008 -2.3970156,-0.1 -0.6990132,-0.698999 -0.6990132,-1.7970024 0,-2.3970018 l 6.0930723,-5.8930185 0.09999,-0.1000027 0.100008,-0.099 c 0.298999,-0.3 0.698998,-0.4000025 1.098005,-0.4000023 z M 23.185637,0 c 1.898016,-3.7247446e-8 3.496043,1.5980041 3.496043,3.4960081 0,1.8980084 -1.598027,3.4960123 -3.496043,3.4960123 -1.898016,0 -3.496042,-1.5980039 -3.496042,-3.4960123 C 19.589602,1.5980041 21.187613,-3.7247446e-8 23.185637,0 Z"
       inkscape:connector-curvature="0"
       style="fill:#204d17;fill-opacity:1" />
  </g>
</svg>
